<svg class="svg-calc" xmlns="http://www.w3.org/2000/svg" viewBox="0 0 48 57.6" width="30" height="30">
    <path d="M40 28.8h-6.4c-0.9 0-1.6 0.7-1.6 1.6v6.4c0 0.9 0.7 1.6 1.6 1.6H40c0.9 0 1.6-0.7 1.6-1.6v-6.4C41.6 29.5 40.9 28.8 40 28.8zM38.4 35.2h-3.2V32h3.2V35.2zM14.4 41.6H8c-0.9 0-1.6 0.7-1.6 1.6v6.4c0 0.9 0.7 1.6 1.6 1.6h6.4c0.9 0 1.6-0.7 1.6-1.6v-6.4C16 42.3 15.3 41.6 14.4 41.6zM12.8 48H9.6v-3.2h3.2V48zM41.6 0H6.4C2.9 0 0 2.9 0 6.4v44.8c0 3.5 2.9 6.4 6.4 6.4h35.2c3.5 0 6.4-2.9 6.4-6.4V6.4C48 2.9 45.1 0 41.6 0zM44.8 51.2c0 1.8-1.4 3.2-3.2 3.2H6.4c-1.8 0-3.2-1.4-3.2-3.2V6.4c0-1.8 1.4-3.2 3.2-3.2h35.2c1.8 0 3.2 1.4 3.2 3.2V51.2zM14.4 28.8H8c-0.9 0-1.6 0.7-1.6 1.6v6.4c0 0.9 0.7 1.6 1.6 1.6h6.4c0.9 0 1.6-0.7 1.6-1.6v-6.4C16 29.5 15.3 28.8 14.4 28.8zM12.8 35.2H9.6V32h3.2V35.2zM40 41.6h-6.4c-0.9 0-1.6 0.7-1.6 1.6v6.4c0 0.9 0.7 1.6 1.6 1.6H40c0.9 0 1.6-0.7 1.6-1.6v-6.4C41.6 42.3 40.9 41.6 40 41.6zM38.4 48h-3.2v-3.2h3.2V48zM27.2 28.8h-6.4c-0.9 0-1.6 0.7-1.6 1.6v6.4c0 0.9 0.7 1.6 1.6 1.6h6.4c0.9 0 1.6-0.7 1.6-1.6v-6.4C28.8 29.5 28.1 28.8 27.2 28.8zM25.6 35.2h-3.2V32h3.2V35.2zM40 6.4H8C7.1 6.4 6.4 7.1 6.4 8v16c0 0.9 0.7 1.6 1.6 1.6h32c0.9 0 1.6-0.7 1.6-1.6V8C41.6 7.1 40.9 6.4 40 6.4zM38.4 22.4H9.6V9.6h28.8V22.4zM27.2 41.6h-6.4c-0.9 0-1.6 0.7-1.6 1.6v6.4c0 0.9 0.7 1.6 1.6 1.6h6.4c0.9 0 1.6-0.7 1.6-1.6v-6.4C28.8 42.3 28.1 41.6 27.2 41.6zM25.6 48h-3.2v-3.2h3.2V48z"></path>
</svg>