<svg class="svg-doc" xmlns="http://www.w3.org/2000/svg" viewBox="0 0 69.5 88.4" width="24" height="30">
    <path d="M68.9 20.3L51.6 0.8C51.1 0.3 50.5 0 49.8 0H2.5C1.1 0 0 1.1 0 2.5v83.4c0 1.4 1.1 2.5 2.5 2.5H67c1.4 0 2.5-1.1 2.5-2.5V21.9C69.5 21.3 69.3 20.7 68.9 20.3zM52.2 9l9.3 10.5h-9.3V9zM64.5 83.4H5V5h42.2v17.1c0 1.4 1.1 2.5 2.5 2.5h14.8V83.4zM14 42.6c0 1.4 1.1 2.5 2.5 2.5H53c1.4 0 2.5-1.1 2.5-2.5s-1.1-2.5-2.5-2.5H16.5C15.1 40.1 14 41.2 14 42.6zM53 67.1H16.5c-1.4 0-2.5 1.1-2.5 2.5 0 1.4 1.1 2.5 2.5 2.5H53c1.4 0 2.5-1.1 2.5-2.5C55.5 68.2 54.4 67.1 53 67.1zM53 53.6H16.5c-1.4 0-2.5 1.1-2.5 2.5s1.1 2.5 2.5 2.5H53c1.4 0 2.5-1.1 2.5-2.5S54.4 53.6 53 53.6z"></path>
</svg>