<svg class="svg-glasses" xmlns="http://www.w3.org/2000/svg" viewBox="0 0 88.4 48.1" width="37" height="20">
    <path d="M87 16.4c0 0-3.1-3.8-6.1-7.4 0.1-0.6 0-1.2-0.4-1.7L76 1.9c-1.2-1.4-2.9-2.1-4.7-1.8 -1.8 0.3-3.3 1.4-4 3.1 -0.4 1 0.1 2.2 1.1 2.6 1 0.4 2.2-0.1 2.6-1.1C71.2 4.1 71.7 4 71.9 4c0.2 0 0.7 0 1 0.4l4.5 5.4c0.4 0.5 1 0.7 1.5 0.7 0 0 0.1 0 0.1 0 3 3.6 6.1 7.3 6.1 7.4 0.8 0.9 1 2.1 0.8 3.1 -0.2 1-0.9 1.7-1.8 2.2 -2.5-7.4-9.5-12.7-17.8-12.7 -8.6 0-15.8 5.8-18.1 13.6 -1.1-0.9-2.5-1.4-4.1-1.4 -1.6 0-3 0.5-4.1 1.4 -2.2-7.9-9.5-13.7-18.1-13.7 -8.3 0-15.4 5.4-17.8 12.9l-0.8-0.5c-1.3-1.4-1.4-3.5-0.2-5l6.1-7.4c0 0 0.1 0 0.1 0 0.6 0 1.1-0.2 1.5-0.7l4.5-5.4c0.4-0.4 0.9-0.4 1-0.4 0.2 0 0.7 0.2 0.9 0.7 0.4 1 1.6 1.5 2.6 1.1 1-0.4 1.5-1.6 1.1-2.6 -0.7-1.7-2.2-2.8-4-3.1 -1.8-0.3-3.5 0.4-4.7 1.8L7.9 7.3C7.5 7.8 7.4 8.4 7.5 9l-6.1 7.4c-2 2.5-1.9 6 0.4 8.3 0 0.1 0.1 0.1 0.2 0.1l1.6 1.1c-0.2 1.1-0.3 2.2-0.3 3.4 0 10.4 8.4 18.8 18.8 18.8 10.4 0 18.8-8.4 18.8-18.8 0-0.8 0-1.5-0.1-2.2 0.7-1.2 2-1.9 3.5-1.9 1.5 0 2.8 0.8 3.5 1.9 -0.1 0.7-0.1 1.5-0.1 2.2 0 10.4 8.4 18.8 18.8 18.8s18.8-8.4 18.8-18.8c0-1.3-0.1-2.5-0.4-3.7l0.2-0.1c1.7-0.7 2.9-2.2 3.3-3.9C88.7 19.8 88.2 17.9 87 16.4zM22 44.1c-8.2 0-14.8-6.6-14.8-14.8 0-8.2 6.6-14.8 14.8-14.8 8.2 0 14.8 6.6 14.8 14.8C36.8 37.5 30.2 44.1 22 44.1zM66.4 44.1c-8.2 0-14.8-6.6-14.8-14.8 0-8.2 6.6-14.8 14.8-14.8 8.2 0 14.8 6.6 14.8 14.8C81.1 37.5 74.5 44.1 66.4 44.1z"></path>
</svg>