<svg class="svg-msg" xmlns="http://www.w3.org/2000/svg" viewBox="0 0 79 78.2" width="30" height="30">
    <path d="M15.5 45.7h28.2v-6H15.5V45.7zM15.5 34.7h47v-6h-47V34.7zM72 0H7C3.1 0 0 3.1 0 7v49c0 3.9 3.1 7 7 7h25.2l13.2 13.7c0.8 1 1.9 1.5 3.1 1.5 1.4 0 2.6-0.7 3.4-1.9 0.2-0.2 0.3-0.5 0.4-0.8L55.8 63H72c3.9 0 7-3.1 7-7V7C79 3.1 75.9 0 72 0zM73 56.1c0 0.6-0.4 1-1 1H53.5c-1.3 0-2.5 0.9-2.9 2.2l-3.1 11L35.7 58c-0.6-0.6-1.3-0.9-2.2-0.9H7c-0.6 0-1-0.4-1-1v-49c0-0.6 0.4-1 1-1h65c0.6 0 1 0.4 1 1V56.1zM15.5 22.7h47v-6h-47V22.7z"></path>
</svg>