<svg class="svg-price" xmlns="http://www.w3.org/2000/svg" viewBox="0 0 24 24" width="30" height="30">
    <path d="M20 13h-8v2h8V13zM20 17h-8v2h8V17zM20 9h-8v2h8V9zM0 0v24h24V0H0zM22 22H2V6h20V22zM22 4H2V2h20V4zM6.9 15L6.9 15c0.4 0 0.6 0.2 0.6 0.4 0 0.2-0.1 0.4-0.3 0.5 -0.3 0.1-0.5-0.1-0.6-0.3l-1.9 0.7c0.3 0.6 0.7 1.1 1.3 1.3V19h2v-1.4c1-0.4 1.7-1.5 1.5-2.6 -0.2-1.1-1.2-1.9-2.4-1.9H7c-0.3 0-0.5-0.2-0.5-0.4 0-0.2 0.1-0.4 0.3-0.5 0.3-0.1 0.5 0.1 0.6 0.3l1.9-0.7c-0.3-0.6-0.7-1.1-1.3-1.3V9H6v1.4c-1 0.4-1.7 1.5-1.5 2.6C4.7 14.2 5.8 14.9 6.9 15z"></path>
</svg>