<svg class="svg-site-map" xmlns="http://www.w3.org/2000/svg" viewBox="0 0 58.2 60" width="20" height="20">
    <path d="M49.8 38.6V27.9c0 0 0-0.1 0-0.1 0 0 0-0.1 0-0.1 0-1.4-1-2.5-2.3-2.5H31.6v-3.8c4.8-1.1 8.3-5.4 8.3-10.5 0-6-4.9-10.8-10.8-10.8 -6 0-10.8 4.9-10.8 10.8 0 5.1 3.6 9.4 8.3 10.5v3.8H10.6c-1.3 0-2.3 1.1-2.3 2.5 0 0 0 0.1 0 0.1 0 0 0 0.1 0 0.1v10.8C3.6 39.8 0 44.1 0 49.2 0 55.1 4.9 60 10.8 60s10.8-4.9 10.8-10.8c0-5.1-3.6-9.4-8.3-10.5v-8.4h31.5v8.4c-4.8 1.1-8.3 5.4-8.3 10.5 0 6 4.9 10.8 10.8 10.8s10.8-4.9 10.8-10.8C58.2 44.1 54.6 39.8 49.8 38.6zM23.2 10.8c0-3.2 2.6-5.8 5.8-5.8s5.8 2.6 5.8 5.8c0 3.2-2.6 5.8-5.8 5.8 0 0 0 0 0 0s0 0 0 0C25.8 16.6 23.2 14 23.2 10.8zM16.7 49.2c0 3.2-2.6 5.8-5.8 5.8S5 52.4 5 49.2c0-3.2 2.6-5.8 5.8-5.8S16.7 46 16.7 49.2zM47.3 55c-3.2 0-5.8-2.6-5.8-5.8 0-3.2 2.6-5.8 5.8-5.8s5.8 2.6 5.8 5.8C53.2 52.4 50.5 55 47.3 55z"></path>
</svg>